<svg xmlns="http://www.w3.org/2000/svg" viewBox="0 0 100 100" fill="none" stroke="currentColor" stroke-width="2" stroke-linecap="round" stroke-linejoin="round">
  <!-- Retro arcade screen frame -->
  <rect x="10" y="10" width="80" height="60" rx="4" stroke-width="3"/>

  <!-- Scanlines inside screen -->
  <line x1="15" y1="20" x2="85" y2="20" opacity="0.3"/>
  <line x1="15" y1="30" x2="85" y2="30" opacity="0.3"/>
  <line x1="15" y1="40" x2="85" y2="40" opacity="0.3"/>
  <line x1="15" y1="50" x2="85" y2="50" opacity="0.3"/>
  <line x1="15" y1="60" x2="85" y2="60" opacity="0.3"/>

  <!-- Pixelated "40" on screen -->
  <!-- "4" -->
  <rect x="25" y="30" width="3" height="12" fill="currentColor"/>
  <rect x="30" y="30" width="3" height="3" fill="currentColor"/>
  <rect x="30" y="36" width="8" height="3" fill="currentColor"/>
  <rect x="35" y="27" width="3" height="18" fill="currentColor"/>

  <!-- "0" -->
  <rect x="50" y="27" width="12" height="3" fill="currentColor"/>
  <rect x="50" y="42" width="12" height="3" fill="currentColor"/>
  <rect x="50" y="30" width="3" height="12" fill="currentColor"/>
  <rect x="59" y="30" width="3" height="12" fill="currentColor"/>

  <!-- Arcade cabinet base buttons -->
  <circle cx="30" cy="82" r="5" stroke-width="2"/>
  <circle cx="50" cy="82" r="5" stroke-width="2"/>
  <circle cx="70" cy="82" r="5" stroke-width="2"/>

  <!-- Joystick -->
  <circle cx="30" cy="82" r="2" fill="currentColor"/>
  <line x1="30" y1="82" x2="30" y2="75" stroke-width="2"/>
  <circle cx="30" cy="73" r="3" fill="currentColor"/>
</svg>
