<svg width="120" height="160" viewBox="0 0 120 160" fill="none" xmlns="http://www.w3.org/2000/svg">
  <!-- Calculator outline -->
  <rect x="10" y="10" width="100" height="140" rx="5" stroke="#333" stroke-width="2" fill="none" />
  
  <!-- Display screen -->
  <rect x="20" y="20" width="80" height="30" rx="2" stroke="#333" stroke-width="2" fill="none" />
  
  <!-- Buttons -->
  <!-- Row 1 -->
  <rect x="20" y="60" width="18" height="18" rx="2" stroke="#333" stroke-width="1.5" fill="none" />
  <rect x="44" y="60" width="18" height="18" rx="2" stroke="#333" stroke-width="1.5" fill="none" />
  <rect x="68" y="60" width="18" height="18" rx="2" stroke="#333" stroke-width="1.5" fill="none" />
  <rect x="92" y="60" width="18" height="18" rx="2" stroke="#333" stroke-width="1.5" fill="none" />
  
  <!-- Row 2 -->
  <rect x="20" y="84" width="18" height="18" rx="2" stroke="#333" stroke-width="1.5" fill="none" />
  <rect x="44" y="84" width="18" height="18" rx="2" stroke="#333" stroke-width="1.5" fill="none" />
  <rect x="68" y="84" width="18" height="18" rx="2" stroke="#333" stroke-width="1.5" fill="none" />
  <rect x="92" y="84" width="18" height="18" rx="2" stroke="#333" stroke-width="1.5" fill="none" />
  
  <!-- Row 3 -->
  <rect x="20" y="108" width="18" height="18" rx="2" stroke="#333" stroke-width="1.5" fill="none" />
  <rect x="44" y="108" width="18" height="18" rx="2" stroke="#333" stroke-width="1.5" fill="none" />
  <rect x="68" y="108" width="18" height="18" rx="2" stroke="#333" stroke-width="1.5" fill="none" />
  <rect x="92" y="108" width="18" height="18" rx="2" stroke="#333" stroke-width="1.5" fill="none" />
  
  <!-- Row 4 -->
  <rect x="20" y="132" width="42" height="18" rx="2" stroke="#333" stroke-width="1.5" fill="none" />
  <rect x="68" y="132" width="18" height="18" rx="2" stroke="#333" stroke-width="1.5" fill="none" />
  <rect x="92" y="132" width="18" height="18" rx="2" stroke="#333" stroke-width="1.5" fill="none" />
</svg> 