<svg xmlns="http://www.w3.org/2000/svg" width="24" height="24" viewBox="0 0 24 24" fill="none" stroke="currentColor" stroke-width="2" stroke-linecap="round" stroke-linejoin="round">
  <path d="M8 13v3"/>
  <path d="M16 13v3"/>
  <path d="M12 18v2"/>
  <path d="M5 8v4c0 1.5 1 3 3 3h8c2 0 3-1.5 3-3V8"/>
  <ellipse cx="12" cy="8.5" rx="7" ry="3.5"/>
  <circle cx="10" cy="9" r="1"/>
  <circle cx="14" cy="9" r="1"/>
  <path d="M10.5 12c0 .5.5 1 1.5 1s1.5-.5 1.5-1"/>
  <path d="M4 5c0-1 1-2 3-2s3 1 3 2v3"/>
  <path d="M17 5c0-1 1-2 3-2s3 1 3 2v3"/>
</svg>