<svg width="24" height="24" viewBox="0 0 24 24" fill="none" xmlns="http://www.w3.org/2000/svg">
  <path d="M5 19C5 20.1046 4.10457 21 3 21C1.89543 21 1 20.1046 1 19C1 17.8954 1.89543 17 3 17C4.10457 17 5 17.8954 5 19Z" stroke="currentColor" stroke-width="2"/>
  <path d="M23 19C23 20.1046 22.1046 21 21 21C19.8954 21 19 20.1046 19 19C19 17.8954 19.8954 17 21 17C22.1046 17 23 17.8954 23 19Z" stroke="currentColor" stroke-width="2"/>
  <path d="M7.5 17L10 8H14L16 12H19M19 12C19 12 19.5 10 21 10M19 12V17" stroke="currentColor" stroke-width="2" stroke-linecap="round" stroke-linejoin="round"/>
  <path d="M5 17H7.5L9 13M15 17H19" stroke="currentColor" stroke-width="2" stroke-linecap="round" stroke-linejoin="round"/>
  <path d="M8 10L6 8L8 6" stroke="currentColor" stroke-width="2" stroke-linecap="round" stroke-linejoin="round"/>
</svg>