<svg width="32" height="32" viewBox="0 0 32 32" fill="none" xmlns="http://www.w3.org/2000/svg">
  <rect width="32" height="32" fill="#1a1a1a" rx="4"/>
  <path d="M22 10C21.2 9.2 20 8.8 18.8 8.8C16.5 8.8 14.5 10.8 14.5 13.1C14.5 13.8 14.7 14.5 15.1 15.1L8 22C7.6 22.4 7.6 23.2 8 23.6L8.4 24C8.8 24.4 9.6 24.4 10 24L17 17C17.6 17.4 18.3 17.5 19 17.5C21.3 17.5 23.3 15.5 23.3 13.2C23.3 12 22.9 10.8 22.1 10L19.8 12.3L18.2 10.7L20.5 8.4C20.1 8.4 19.7 8.3 19.3 8.3C18.5 8.3 17.7 8.5 17.1 8.9" fill="#f5f5f5"/>
</svg>